<svg width="340" height="340" viewBox="0 0 340 340" fill="none" xmlns="http://www.w3.org/2000/svg">
<g clip-path="url(#clip0_1_2)">
<rect x="337.619" width="337.627" height="337.627" transform="rotate(89.5959 337.619 0)" fill="#8F00FF"/>
<path fill-rule="evenodd" clip-rule="evenodd" d="M305.033 102.059L227.147 19.0926L173.254 69.6851L204.282 102.059L26.295 269.147L42.4829 287.766L71.2047 260L112.323 303.801L131.821 286.3L90.7025 242.5L105.841 229.228L146.96 273.028L167.185 254.801L126.067 211L220.47 120.678L253.489 155L305.033 102.059ZM237.343 60L213.906 82.0014L246.47 116.689L269.906 94.6876L237.343 60Z" fill="#FFD600"/>
<path d="M227.147 19.0926L230.792 15.6705L227.37 12.0251L223.725 15.4473L227.147 19.0926ZM305.033 102.059L308.615 105.547L311.95 102.122L308.678 98.6366L305.033 102.059ZM173.254 69.6851L169.832 66.0397L166.149 69.4974L169.645 73.1448L173.254 69.6851ZM204.282 102.059L207.704 105.704L211.387 102.246L207.892 98.599L204.282 102.059ZM26.295 269.147L22.8728 265.501L19.364 268.795L22.5216 272.427L26.295 269.147ZM42.4829 287.766L38.7096 291.047L42.1682 295.025L45.9582 291.361L42.4829 287.766ZM71.2047 260L74.8501 256.578L71.3773 252.879L67.7294 256.405L71.2047 260ZM112.323 303.801L108.678 307.223L112.024 310.787L115.663 307.521L112.323 303.801ZM131.821 286.3L135.161 290.021L138.966 286.606L135.466 282.878L131.821 286.3ZM90.7025 242.5L87.4065 238.74L83.5164 242.15L87.0572 245.922L90.7025 242.5ZM105.841 229.228L109.487 225.806L106.179 222.282L102.545 225.468L105.841 229.228ZM146.96 273.028L143.315 276.45L146.668 280.022L150.307 276.742L146.96 273.028ZM167.185 254.801L170.533 258.515L174.323 255.099L170.831 251.378L167.185 254.801ZM126.067 211L122.61 207.387L119.031 210.811L122.421 214.422L126.067 211ZM220.47 120.678L224.073 117.212L220.616 113.618L217.013 117.066L220.47 120.678ZM253.489 155L249.886 158.466L253.468 162.19L257.071 158.488L253.489 155ZM213.906 82.0014L210.484 78.356L206.839 81.7781L210.261 85.4235L213.906 82.0014ZM237.343 60L240.988 56.5778L237.566 52.9325L233.921 56.3546L237.343 60ZM246.47 116.689L242.824 120.111L246.247 123.756L249.892 120.334L246.47 116.689ZM269.906 94.6876L273.328 98.333L276.974 94.9108L273.552 91.2654L269.906 94.6876ZM223.502 22.5148L301.387 105.481L308.678 98.6366L230.792 15.6705L223.502 22.5148ZM176.677 73.3304L230.569 22.738L223.725 15.4473L169.832 66.0397L176.677 73.3304ZM207.892 98.599L176.864 66.2254L169.645 73.1448L200.672 105.518L207.892 98.599ZM29.7171 272.792L207.704 105.704L200.86 98.4133L22.8728 265.501L29.7171 272.792ZM46.2563 284.486L30.0683 265.866L22.5216 272.427L38.7096 291.047L46.2563 284.486ZM67.7294 256.405L39.0077 284.172L45.9582 291.361L74.6799 263.595L67.7294 256.405ZM115.969 300.378L74.8501 256.578L67.5593 263.422L108.678 307.223L115.969 300.378ZM128.481 282.579L108.983 300.08L115.663 307.521L135.161 290.021L128.481 282.579ZM87.0572 245.922L128.176 289.722L135.466 282.878L94.3479 239.077L87.0572 245.922ZM102.545 225.468L87.4065 238.74L93.9986 246.259L109.138 232.988L102.545 225.468ZM150.605 269.606L109.487 225.806L102.196 232.65L143.315 276.45L150.605 269.606ZM163.838 251.086L143.613 269.314L150.307 276.742L170.533 258.515L163.838 251.086ZM122.421 214.422L163.54 258.223L170.831 251.378L129.712 207.578L122.421 214.422ZM217.013 117.066L122.61 207.387L129.523 214.613L223.927 124.291L217.013 117.066ZM257.092 151.534L224.073 117.212L216.867 124.145L249.886 158.466L257.092 151.534ZM301.45 98.5708L249.906 151.512L257.071 158.488L308.615 105.547L301.45 98.5708ZM217.328 85.6468L240.765 63.6454L233.921 56.3546L210.484 78.356L217.328 85.6468ZM250.115 113.267L217.552 78.5792L210.261 85.4235L242.824 120.111L250.115 113.267ZM266.484 91.0422L243.048 113.044L249.892 120.334L273.328 98.333L266.484 91.0422ZM233.697 63.4222L266.261 98.1097L273.552 91.2654L240.988 56.5778L233.697 63.4222Z" fill="black"/>
</g>
<defs>
<clipPath id="clip0_1_2">
<rect width="340" height="340" fill="white"/>
</clipPath>
</defs>
</svg>
